<?xml version="1.0" standalone="no"?>
<!DOCTYPE svg PUBLIC "-//W3C//DTD SVG 20010904//EN"
 "http://www.w3.org/TR/2001/REC-SVG-20010904/DTD/svg10.dtd">
<svg version="1.0" xmlns="http://www.w3.org/2000/svg"
 width="411.000000pt" height="314.000000pt" viewBox="0 0 411.000000 314.000000"
 preserveAspectRatio="xMidYMid meet">

<g transform="translate(0.000000,314.000000) scale(0.100000,-0.100000)"
fill="#000000" stroke="none">
<path d="M1977 1800 c3 -19 9 -44 13 -55 7 -18 9 -18 19 8 14 36 13 61 -1 27
-10 -25 -10 -25 -24 15 -13 39 -13 39 -7 5z"/>
<path d="M2020 1823 c0 -4 5 -15 10 -23 8 -13 10 -13 10 2 0 9 -4 20 -10 23
-5 3 -10 3 -10 -2z"/>
<path d="M2077 1823 c-2 -5 -7 -21 -11 -37 -6 -23 -9 -27 -17 -15 -7 12 -9 12
-9 -1 0 -13 19 -52 20 -40 0 3 7 26 15 53 13 42 14 60 2 40z"/>
<path d="M2179 1814 c-1 -5 0 -22 1 -39 3 -46 15 -50 14 -4 -1 35 -12 67 -15
43z"/>
<path d="M2106 1801 c-3 -5 2 -7 13 -4 17 4 20 0 18 -23 -2 -18 -8 -29 -17
-29 -8 0 -14 7 -12 15 3 11 1 12 -8 3 -17 -16 -3 -33 26 -31 22 2 25 6 22 38
-3 34 -28 54 -42 31z"/>
<path d="M2224 1796 c-17 -43 21 -85 50 -56 8 9 4 10 -16 5 -25 -6 -28 -4 -28
18 0 34 19 45 37 22 7 -11 13 -14 13 -9 0 29 -46 45 -56 20z"/>
<path d="M2301 1765 c2 -33 3 -35 6 -10 2 17 11 35 20 42 13 10 13 12 -6 10
-18 -1 -21 -7 -20 -42z"/>
<path d="M1760 1520 c0 -123 1 -130 20 -130 18 0 20 7 20 76 0 41 4 73 8 70 5
-3 21 -37 36 -75 38 -97 54 -95 97 12 l34 82 3 -82 c3 -81 3 -83 28 -83 l25 0
-3 128 -3 127 -31 3 c-30 3 -32 1 -64 -82 -18 -48 -36 -86 -40 -86 -3 0 -21
38 -39 85 -30 80 -34 85 -62 85 l-29 0 0 -130z"/>
<path d="M2070 1549 c0 -98 1 -101 29 -130 34 -33 92 -39 140 -14 38 19 41 30
41 146 0 99 0 99 -25 99 -25 0 -25 -1 -25 -88 0 -102 -11 -125 -55 -120 -41 4
-55 37 -55 131 0 75 0 77 -25 77 l-25 0 0 -101z"/>
<path d="M2374 1631 c-71 -43 -72 -176 -2 -225 13 -9 43 -16 71 -16 40 0 53 5
78 29 16 16 29 37 29 45 0 23 -44 20 -61 -3 -22 -30 -52 -34 -82 -10 -23 17
-27 28 -27 68 0 34 5 53 18 64 28 25 69 21 88 -8 19 -28 64 -35 64 -9 0 68
-106 108 -176 65z"/>
</g>
</svg>
